<svg aria-hidden="true" style="position: absolute; width: 0; height: 0; overflow: hidden;" version="1.1" xmlns="http://www.w3.org/2000/svg" xmlns:xlink="http://www.w3.org/1999/xlink">
<defs>
<symbol id="icon-location" viewBox="0 0 32 32">
<path d="M16 0c-5.523 0-10 4.477-10 10 0 10 10 22 10 22s10-12 10-22c0-5.523-4.477-10-10-10zM16 16c-3.314 0-6-2.686-6-6s2.686-6 6-6 6 2.686 6 6-2.686 6-6 6z"></path>
</symbol>
<symbol id="icon-microphone" viewBox="0 0 18 28">
<path d="M18 11v2c0 4.625-3.5 8.437-8 8.937v2.063h4c0.547 0 1 0.453 1 1s-0.453 1-1 1h-10c-0.547 0-1-0.453-1-1s0.453-1 1-1h4v-2.063c-4.5-0.5-8-4.312-8-8.937v-2c0-0.547 0.453-1 1-1s1 0.453 1 1v2c0 3.859 3.141 7 7 7s7-3.141 7-7v-2c0-0.547 0.453-1 1-1s1 0.453 1 1zM14 5v8c0 2.75-2.25 5-5 5s-5-2.25-5-5v-8c0-2.75 2.25-5 5-5s5 2.25 5 5z"></path>
</symbol>
</defs>
</svg>
