<svg aria-hidden="true" style="position: absolute; width: 0; height: 0; overflow: hidden;" version="1.1" xmlns="http://www.w3.org/2000/svg" xmlns:xlink="http://www.w3.org/1999/xlink">
<defs>
<symbol id="icon-jb_phpstorm" viewBox="0 0 32 32">
<path d="M18.103 6.949l-1.509-4.571-11.154-2.377-5.44 6.171 17.006 8.686 1.097-7.909z" fill="#FA3293"></path>
<path d="M12.8 18.926l-0.32-9.509-12.48-3.246 3.063 18.331 9.737-0.091v-5.486z" fill="#B345F1"></path>
<path d="M10.103 18.743l0.594-7.543 9.051-9.28 8.091 1.463 4.16 10.377-4.343 4.297-7.086-1.143-4.389 4.617-6.080-2.789z" fill="#765AF8"
></path>
<path d="M19.749 1.92l-12.983 11.52 2.514 14.811 10.789 3.749 11.931-7.131-12.251-22.949z" fill="#AE47F2
"></path>
<path d="M6.126 6.126h19.749v19.749h-19.749v-19.749z" fill="black"></path>
<path d="M8 22.171h7.406v1.234h-7.406v-1.234z" fill="white"></path>
<path d="M7.909 8.686h3.337c1.966 0 3.154 1.143 3.154 2.834v0.046c0 1.92-1.463 2.88-3.337 2.88h-1.371v2.469h-1.783v-8.229zM11.154 12.8c0.914 0 1.417-0.549 1.417-1.234v-0.046c0-0.823-0.549-1.234-1.463-1.234h-1.371v2.514h1.417z" fill="white"></path>
<path d="M14.857 15.726l1.051-1.28c0.731 0.594 1.509 1.006 2.469 1.006 0.731 0 1.189-0.274 1.189-0.777v-0.046c0-0.457-0.274-0.686-1.646-1.051-1.646-0.411-2.743-0.869-2.743-2.514v-0.046c0-1.509 1.189-2.469 2.88-2.469 1.189 0 2.24 0.366 3.063 1.051l-0.96 1.371c-0.731-0.503-1.463-0.823-2.149-0.823s-1.051 0.32-1.051 0.731v0.046c0 0.549 0.366 0.731 1.783 1.097 1.646 0.457 2.606 1.051 2.606 2.469v0.046c0 1.646-1.234 2.56-3.017 2.56-1.234-0.046-2.469-0.503-3.474-1.371z" fill="white"></path>
</symbol>
</defs>
</svg>
